<svg id="logo_mxs_branca" data-name="logo mxs branca" xmlns="http://www.w3.org/2000/svg" width="150.752" height="47.816" viewBox="0 0 150.752 47.816">
  <g id="Grupo_109" data-name="Grupo 109" transform="translate(0 0)">
    <path id="Caminho_107" data-name="Caminho 107" d="M287.382,154.266q0,2.964-.009,5.928a23.84,23.84,0,0,0,17.618-19.9,24.319,24.319,0,0,0-9.129-22.189l-14.608,15.67v6.207l14.616-14.021a17.961,17.961,0,0,1,3.217,17.379C296.147,151.742,288.092,154.074,287.382,154.266Z" transform="translate(-258.007 -112.378)" fill="#fff"/>
    <path id="Caminho_108" data-name="Caminho 108" d="M182.683,154.266q0,2.964.009,5.928a23.84,23.84,0,0,1-17.617-19.9A24.319,24.319,0,0,1,174.2,118.1l14.608,15.67v6.207L174.2,125.959a17.961,17.961,0,0,0-3.217,17.379C173.918,151.742,181.972,154.074,182.683,154.266Z" transform="translate(-164.873 -112.378)" fill="#fff"/>
    <path id="Caminho_109" data-name="Caminho 109" d="M345.876,203.694" transform="translate(-309.722 -180.345)" fill="#fff"/>
    <path id="Caminho_110" data-name="Caminho 110" d="M224.2,151.359l-3.611,3.723L196.15,130.025a13.457,13.457,0,0,1,2.9-1.9,13.158,13.158,0,0,1,1.837-.724q1.43,1.433,2.859,2.873Q214.187,140.793,224.2,151.359Z" transform="translate(-189.903 -119.759)" fill="#fff"/>
    <path id="Caminho_111" data-name="Caminho 111" d="M232.486,149.047l3.612,3.723,24.443-25.057a13.46,13.46,0,0,0-2.9-1.9,13.2,13.2,0,0,0-1.837-.724q-1.43,1.433-2.859,2.873Q242.5,138.482,232.486,149.047Z" transform="translate(-218.981 -117.923)" fill="#fff"/>
    <g id="Grupo_108" data-name="Grupo 108" transform="translate(8.78)">
      <path id="Caminho_112" data-name="Caminho 112" d="M248.668,97.095a17.753,17.753,0,0,0-9.306-1.794,17.4,17.4,0,0,0-5.716,1.506l-3.035-3.437a19.743,19.743,0,0,1,21.743.4Z" transform="translate(-226.26 -90.305)" fill="#fff"/>
      <path id="Caminho_113" data-name="Caminho 113" d="M249.672,120.147l-2.315,4.545L222.828,99.725a19.074,19.074,0,0,1,3.193-1.78,18.833,18.833,0,0,1,2.212-.807Z" transform="translate(-220.032 -95.732)" fill="#fff"/>
      <path id="Caminho_114" data-name="Caminho 114" d="M209.388,189.033a16.219,16.219,0,0,0,.557,10.117,15.048,15.048,0,0,0,14.445,9.418c8.19-.463,12.158-8.019,12.4-8.518a16.657,16.657,0,0,0,1.674-7l-4.2.679c-.349,6.386-5.845,11.088-11.594,10.434-5.293-.6-9.5-5.6-9.25-11.461Z" transform="translate(-208.83 -168.703)" fill="#fff"/>
    </g>
    <path id="Caminho_115" data-name="Caminho 115" d="M346.108,188.334" transform="translate(-309.907 -168.148)" fill="#fff"/>
  </g>
  <g id="Grupo_114" data-name="Grupo 114" transform="translate(58.565 3.535)">
    <g id="Grupo_111" data-name="Grupo 111" transform="translate(0)">
      <g id="Grupo_110" data-name="Grupo 110">
        <path id="Caminho_116" data-name="Caminho 116" d="M458.075,112.337a3.449,3.449,0,0,1,3.423-3.528h.756a3.5,3.5,0,0,1,3.111,1.833l8.267,13.883,8.312-13.929a3.334,3.334,0,0,1,3.067-1.787h.756a3.449,3.449,0,0,1,3.423,3.528v25.476a3.4,3.4,0,1,1-6.8,0V121.822l-6,9.531a3.158,3.158,0,0,1-5.689,0l-5.911-9.393V137.9a3.39,3.39,0,0,1-3.378,3.437,3.353,3.353,0,0,1-3.333-3.437Z" transform="translate(-458.075 -108.534)" fill="#fff"/>
        <path id="Caminho_117" data-name="Caminho 117" d="M643.8,135.03l8.4-10.63-7.911-9.943a4.382,4.382,0,0,1-1.023-2.611,3.347,3.347,0,0,1,3.378-3.483A3.566,3.566,0,0,1,649.8,110.1l6.8,9.347,6.756-9.164a3.885,3.885,0,0,1,3.333-1.924,3.175,3.175,0,0,1,3.111,3.253,4.266,4.266,0,0,1-1.022,2.7l-7.912,9.989,8.356,10.584a4.384,4.384,0,0,1,1.022,2.612,3.347,3.347,0,0,1-3.378,3.482,3.566,3.566,0,0,1-3.155-1.741l-7.289-9.851-7.2,9.668a3.884,3.884,0,0,1-3.334,1.924,3.174,3.174,0,0,1-3.111-3.253A4.264,4.264,0,0,1,643.8,135.03Z" transform="translate(-605.887 -108.18)" fill="#fff"/>
        <path id="Caminho_118" data-name="Caminho 118" d="M798.729,136.615a3.328,3.328,0,0,1-1.289-2.657,3.225,3.225,0,0,1,5.155-2.612,12.878,12.878,0,0,0,7.956,2.887c2.8,0,4.489-1.146,4.489-3.024v-.092c0-1.787-1.067-2.7-6.267-4.078-6.267-1.65-10.312-3.437-10.312-9.806v-.091c0-5.819,4.534-9.668,10.889-9.668a17.663,17.663,0,0,1,9.867,2.841,3.235,3.235,0,0,1,1.511,2.8,3.208,3.208,0,0,1-4.934,2.749,12.673,12.673,0,0,0-6.534-2.154c-2.622,0-4,1.237-4,2.8v.091c0,2.108,1.333,2.8,6.711,4.216,6.311,1.7,9.867,4.032,9.867,9.622v.092c0,6.369-4.711,9.943-11.423,9.943A19.672,19.672,0,0,1,798.729,136.615Z" transform="translate(-729.654 -107.474)" fill="#fff"/>
      </g>
    </g>
    <g id="Grupo_113" data-name="Grupo 113" transform="translate(25.948 37.835)">
      <g id="Grupo_112" data-name="Grupo 112">
        <path id="Caminho_119" data-name="Caminho 119" d="M590.122,300.717a1.576,1.576,0,0,0-.822.218,1.5,1.5,0,0,0-.57.608,1.9,1.9,0,0,0-.2.894,1.929,1.929,0,0,0,.2.9,1.494,1.494,0,0,0,.57.613,1.573,1.573,0,0,0,.822.218,1.889,1.889,0,0,0,.761-.151,1.559,1.559,0,0,0,.583-.436l.309.335a1.91,1.91,0,0,1-.716.546,2.324,2.324,0,0,1-.961.193,2.115,2.115,0,0,1-1.091-.281,1.977,1.977,0,0,1-.753-.789,2.542,2.542,0,0,1,0-2.292,1.985,1.985,0,0,1,.753-.789,2.119,2.119,0,0,1,1.091-.281,2.39,2.39,0,0,1,.908.168,2.058,2.058,0,0,1,.7.47l-.31.378A1.738,1.738,0,0,0,590.122,300.717Z" transform="translate(-587.98 -298.367)" fill="#fff"/>
        <path id="Caminho_120" data-name="Caminho 120" d="M622.4,300.5a1.715,1.715,0,0,1,.949-.273v.529a1.435,1.435,0,0,0-1.087.407,1.743,1.743,0,0,0-.468,1.129v2.35h-.545v-4.4h.545v1.024A1.676,1.676,0,0,1,622.4,300.5Z" transform="translate(-614.601 -298.367)" fill="#fff"/>
        <path id="Caminho_121" data-name="Caminho 121" d="M645.7,293.719a2.562,2.562,0,0,1,.481,1.751h-3.558a1.708,1.708,0,0,0,.505,1.137,1.531,1.531,0,0,0,1.107.432,1.894,1.894,0,0,0,.757-.151,1.736,1.736,0,0,0,.6-.428l.309.319a2.116,2.116,0,0,1-.745.533,2.372,2.372,0,0,1-.957.189,2.133,2.133,0,0,1-1.1-.281,1.983,1.983,0,0,1-.753-.785,2.552,2.552,0,0,1,0-2.3,1.985,1.985,0,0,1,.753-.789,2.1,2.1,0,0,1,1.083-.281A1.825,1.825,0,0,1,645.7,293.719Zm-.008,1.314a1.635,1.635,0,0,0-.444-1.1,1.42,1.42,0,0,0-1.055-.408,1.5,1.5,0,0,0-1.075.412,1.67,1.67,0,0,0-.5,1.091Zm-.945-3.82.562.252-1.026.84-.488-.059Z" transform="translate(-631.271 -291.213)" fill="#fff"/>
        <path id="Caminho_122" data-name="Caminho 122" d="M678.606,291.416v6.229h-.546v-1.008a1.831,1.831,0,0,1-.684.768,1.907,1.907,0,0,1-1.027.273,2.038,2.038,0,0,1-1.075-.286,1.929,1.929,0,0,1-.733-.8,2.515,2.515,0,0,1-.261-1.158,2.435,2.435,0,0,1,.264-1.15,1.972,1.972,0,0,1,1.8-1.075,1.908,1.908,0,0,1,1.03.277,1.857,1.857,0,0,1,.688.773v-2.846Zm-1.327,5.553a1.545,1.545,0,0,0,.574-.617,1.9,1.9,0,0,0,.208-.9,1.925,1.925,0,0,0-.208-.9,1.571,1.571,0,0,0-.574-.625,1.636,1.636,0,0,0-1.661,0,1.606,1.606,0,0,0-.579.625,2.039,2.039,0,0,0,0,1.8,1.534,1.534,0,0,0,.578.617,1.59,1.59,0,0,0,.835.223A1.569,1.569,0,0,0,677.279,296.969Z" transform="translate(-657.044 -291.374)" fill="#fff"/>
        <path id="Caminho_123" data-name="Caminho 123" d="M712.4,292.345a.4.4,0,0,1,.106.281.4.4,0,0,1-.11.286.349.349,0,0,1-.264.118.359.359,0,0,1-.273-.118.4.4,0,0,1-.11-.286.39.39,0,0,1,.11-.281.367.367,0,0,1,.273-.113A.352.352,0,0,1,712.4,292.345Zm-.545,1.549h.545v4.4h-.545Z" transform="translate(-687.024 -292.022)" fill="#fff"/>
        <path id="Caminho_124" data-name="Caminho 124" d="M731.369,300.516a1.708,1.708,0,0,1-.944.328,1,1,0,0,1-.774-.311,1.335,1.335,0,0,1-.285-.932v-2.619h-.611l-.008-.436h.619v-1.133h.546v1.133l1.384-.008v.445h-1.384v2.527q0,.815.586.814a1.374,1.374,0,0,0,.708-.235Z" transform="translate(-700.63 -294.547)" fill="#fff"/>
        <path id="Caminho_125" data-name="Caminho 125" d="M755.687,300.5a2,2,0,0,1,.765.785,2.328,2.328,0,0,1,.277,1.142,2.366,2.366,0,0,1-.277,1.154,1.985,1.985,0,0,1-.765.789,2.32,2.32,0,0,1-2.215,0,1.985,1.985,0,0,1-.765-.789,2.368,2.368,0,0,1-.277-1.154,2.33,2.33,0,0,1,.277-1.142,2,2,0,0,1,.765-.785,2.32,2.32,0,0,1,2.215,0Zm-1.938.424a1.491,1.491,0,0,0-.57.613,1.927,1.927,0,0,0-.2.9,1.948,1.948,0,0,0,.2.907,1.49,1.49,0,0,0,.57.612,1.689,1.689,0,0,0,1.662,0,1.49,1.49,0,0,0,.57-.612,1.948,1.948,0,0,0,.2-.907,1.927,1.927,0,0,0-.2-.9,1.491,1.491,0,0,0-.57-.613,1.689,1.689,0,0,0-1.662,0Z" transform="translate(-719.582 -298.367)" fill="#fff"/>
      </g>
    </g>
  </g>
</svg>
