<?xml version="1.0" encoding="utf-8"?>
<!-- Generator: Adobe Illustrator 27.2.0, SVG Export Plug-In . SVG Version: 6.00 Build 0)  -->
<svg version="1.1" id="Camada_1" xmlns="http://www.w3.org/2000/svg" xmlns:xlink="http://www.w3.org/1999/xlink" x="0px" y="0px"
	 viewBox="0 0 669.3 205.9" style="enable-background:new 0 0 669.3 205.9;" xml:space="preserve">
<style type="text/css">
	.st0{fill:url(#Caminho_107_00000144324658912584026020000010756497580704018094_);}
	.st1{fill:url(#Caminho_108_00000159430818938928400320000012218995054166157210_);}
	.st2{fill:#FCFCFD;}
	.st3{fill:url(#Caminho_110_00000129896734243703153480000001205916372945994148_);}
	.st4{fill:url(#Caminho_111_00000170993272251809437390000009770657196682478756_);}
	.st5{fill:url(#Caminho_112_00000088094991532072089760000003198297817223244936_);}
	.st6{fill:url(#Caminho_113_00000169545115335504390300000006106150095585701053_);}
	.st7{fill:url(#Caminho_114_00000016754756062238847220000001757547016895307140_);}
	.st8{fill:#162B45;}
	.st9{fill:#767923;}
</style>
<g id="logo_MXS" transform="translate(165.38 396.808)">
	<g id="Grupo_115">
		<g id="Grupo_109">
			
				<linearGradient id="Caminho_107_00000149368192801998610170000004329438707696672388_" gradientUnits="userSpaceOnUse" x1="319.0189" y1="101.0811" x2="320.0189" y2="101.0811" gradientTransform="matrix(106.2789 0 0 -181.272 -33967.1641 18041.6602)">
				<stop  offset="0.802" style="stop-color:#494E2E"/>
				<stop  offset="0.941" style="stop-color:#494E2E"/>
			</linearGradient>
			<path id="Caminho_107" style="fill:url(#Caminho_107_00000149368192801998610170000004329438707696672388_);" d="M-35-216.4
				c0,8.5,0,17,0,25.5c41.6-10.4,72.6-44.6,78.2-85.7c4.9-36.3-10.7-72.9-40.5-95.6l-64.9,67.5v26.7l64.9-60.4
				c17.9,20.5,23.4,49.1,14.3,74.8C3.9-227.3-31.8-217.2-35-216.4z"/>
			
				<linearGradient id="Caminho_108_00000098193838284880210590000007485289801791634056_" gradientUnits="userSpaceOnUse" x1="379.1768" y1="101.0811" x2="380.1768" y2="101.0811" gradientTransform="matrix(106.2779 0 0 -181.272 -34070.0352 18041.6602)">
				<stop  offset="0.802" style="stop-color:#494E2E"/>
				<stop  offset="0.941" style="stop-color:#494E2E"/>
			</linearGradient>
			<path id="Caminho_108" style="fill:url(#Caminho_108_00000098193838284880210590000007485289801791634056_);" d="M-86.3-216.4
				c0,8.5,0,17,0,25.5c-41.6-10.4-72.6-44.6-78.2-85.7c-4.9-36.3,10.7-72.9,40.5-95.6l64.9,67.5v26.7l-64.9-60.4
				c-17.9,20.5-23.4,49.1-14.3,74.8C-125.2-227.3-89.5-217.2-86.3-216.4z"/>
			<path id="Caminho_109" class="st2" d="M-4.9-296.3"/>
			
				<linearGradient id="Caminho_110_00000106138442030212977490000016987157318738161825_" gradientUnits="userSpaceOnUse" x1="319.6938" y1="100.2427" x2="320.6938" y2="100.2427" gradientTransform="matrix(124.55 0 0 -119.22 -39955.5195 11646.6348)">
				<stop  offset="0.346" style="stop-color:#494E2E"/>
				<stop  offset="1" style="stop-color:#72732F"/>
			</linearGradient>
			<path id="Caminho_110" style="fill:url(#Caminho_110_00000106138442030212977490000016987157318738161825_);" d="M-13.1-260.7
				l-16,16c-36.2-36-72.3-71.9-108.5-107.9c6.2-5.2,13.3-9,21-11.3c4.2,4.1,8.5,8.2,12.7,12.4C-73-321.3-42.7-291.1-13.1-260.7z"/>
			
				<linearGradient id="Caminho_111_00000100344988932911666190000015170228949357308850_" gradientUnits="userSpaceOnUse" x1="319.6939" y1="100.2428" x2="320.6939" y2="100.2428" gradientTransform="matrix(124.551 0 0 -119.225 -39923.6133 11645.0986)">
				<stop  offset="0.257" style="stop-color:#72732F"/>
				<stop  offset="0.743" style="stop-color:#494E2E"/>
			</linearGradient>
			<path id="Caminho_111" style="fill:url(#Caminho_111_00000100344988932911666190000015170228949357308850_);" d="M-105.4-262.8
				l16,16L19.1-354.7c-6.2-5.2-13.3-9-21-11.3c-4.2,4.1-8.5,8.2-12.7,12.4C-45.5-323.4-75.8-293.1-105.4-262.8z"/>
			<g id="Grupo_108" transform="translate(38.981)">
				
					<linearGradient id="Caminho_112_00000066512390197405005470000003021982097243513259_" gradientUnits="userSpaceOnUse" x1="279.5731" y1="92.7055" x2="280.5731" y2="92.7055" gradientTransform="matrix(96.528 0 0 -29.2395 -27132.6973 2328.47)">
					<stop  offset="0" style="stop-color:#494E2E"/>
					<stop  offset="1" style="stop-color:#77782E"/>
				</linearGradient>
				<path id="Caminho_112" style="fill:url(#Caminho_112_00000066512390197405005470000003021982097243513259_);" d="M-65.9-367.6
					c-12.8-6.2-27.1-8.8-41.3-7.7c-8.8,0.7-17.3,2.9-25.4,6.5l-13.5-14.8c29.8-18.2,67.4-17.5,96.5,1.7L-65.9-367.6z"/>
				
					<linearGradient id="Caminho_113_00000121247279927811853190000014514353670470980485_" gradientUnits="userSpaceOnUse" x1="280.5357" y1="100.2312" x2="281.5357" y2="100.2312" gradientTransform="matrix(119.172 0 0 -118.659 -33584.9648 11561.9121)">
					<stop  offset="0" style="stop-color:#494E2E"/>
					<stop  offset="0.598" style="stop-color:#77782E"/>
				</linearGradient>
				<path id="Caminho_113" style="fill:url(#Caminho_113_00000121247279927811853190000014514353670470980485_);" d="M-33.8-291.7
					l-10.3,19.6L-153-379.6c7.4-4.9,15.5-8.7,24-11.1L-33.8-291.7z"/>
				
					<linearGradient id="Caminho_114_00000111902303440496198750000007566568884559660199_" gradientUnits="userSpaceOnUse" x1="280.9229" y1="99.2249" x2="281.9229" y2="99.2249" gradientTransform="matrix(131.5895 0 0 -84.2205 -37131.875 8089.6265)">
					<stop  offset="0.592" style="stop-color:#77782E"/>
					<stop  offset="1" style="stop-color:#77782E"/>
				</linearGradient>
				<path id="Caminho_114" style="fill:url(#Caminho_114_00000111902303440496198750000007566568884559660199_);" d="M-162.9-309.3
					c-1.8,6.6-5.6,24.4,2.5,43.6c10.1,23.9,35.5,42.1,64.1,40.6c36.4-2,54-34.5,55.1-36.7c4.7-9.4,7.2-19.7,7.4-30.2l-18.6,2.9
					c-1.5,27.5-26,47.8-51.5,44.9c-23.5-2.6-42.2-24.1-41.1-49.4L-162.9-309.3z"/>
			</g>
			<path id="Caminho_115" class="st2" d="M-4.7-309.9"/>
		</g>
		<g id="Grupo_114" transform="translate(260.005 15.225)">
			<g id="Grupo_111" transform="translate(0)">
				<g id="Grupo_110">
					<path id="Caminho_116" class="st8" d="M-165.4-380.4c-0.1-8.3,6.6-15.1,15-15.2c0.1,0,0.2,0,0.2,0h3.4c5.7-0.1,11,2.9,13.8,7.9
						l36.7,59.8l36.9-60c3.2-5.1,7.5-7.7,13.6-7.7h3.4c8.3-0.1,15.1,6.6,15.2,15c0,0.1,0,0.2,0,0.2v109.7
						c0.2,8.3-6.4,15.3-14.7,15.5c-8.3,0.2-15.3-6.4-15.5-14.7c0-0.2,0-0.5,0-0.7v-68.9l-26.6,41c-3.2,4.7-7.1,7.7-12.6,7.7
						s-9.5-3-12.6-7.7l-26.2-40.5v68.7c0,8.2-6.7,14.8-14.8,14.8c-0.1,0-0.1,0-0.2,0c-8.1,0.1-14.7-6.4-14.8-14.5c0-0.1,0-0.2,0-0.3
						L-165.4-380.4z"/>
					<path id="Caminho_117" class="st8" d="M3-281.2L40.2-327L5.1-369.8c-2.4-3-4.5-6.9-4.5-11.2c-0.2-8.1,6.2-14.8,14.2-15
						c0.3,0,0.5,0,0.8,0c6.5,0,10.3,2.6,14,7.5l30.2,40.3l30-39.5c4.1-5.3,8.1-8.3,14.8-8.3c7.7,0,13.8,6.3,13.8,13.9c0,0,0,0,0,0.1
						c0,4.3-1.6,7.9-4.5,11.6l-35.1,43l37.1,45.6c2.4,3,4.5,6.9,4.5,11.2c0.2,8.1-6.2,14.8-14.2,15c-0.3,0-0.5,0-0.8,0
						c-6.5,0-10.3-2.6-14-7.5L59-305.4l-32,41.6c-4.1,5.3-8.1,8.3-14.8,8.3c-7.7,0-13.8-6.3-13.8-13.9c0,0,0,0,0-0.1
						C-1.6-273.9,0-277.4,3-281.2z"/>
					<path id="Caminho_118" class="st8" d="M141.3-271.3c-3.6-2.7-5.7-6.9-5.7-11.4c0-7.7,6.2-14,14-14c0.1,0,0.2,0,0.3,0
						c3.1,0,6.2,0.9,8.7,2.8c10.5,7.7,21.9,12.4,35.3,12.4c12.4,0,19.9-4.9,19.9-13v-0.4c0-7.7-4.7-11.6-27.8-17.6
						c-27.8-7.1-45.8-14.8-45.8-42.2v-0.4c0-25.1,20.1-41.6,48.3-41.6c16.8,0,31.4,4.3,43.8,12.2c6.6,4.1,8.7,12.7,4.6,19.3
						c-2.6,4.2-7.2,6.8-12.1,6.7c-2.7,0-5.4-0.7-7.7-2.2c-10.1-5.9-19.5-9.3-29-9.3c-11.6,0-17.8,5.3-17.8,12v0.4
						c0,9.1,5.9,12,29.8,18.2c28,7.3,43.8,17.4,43.8,41.4v0.4c0,27.4-20.9,42.8-50.7,42.8C174.6-254.7,156.4-260.5,141.3-271.3z"/>
				</g>
			</g>
			<g id="Grupo_113" transform="translate(115.197 162.935)">
				<g id="Grupo_112">
					<path id="Caminho_119" class="st9" d="M-155.9-386.7c-1.3,0-2.5,0.3-3.7,0.9c-1.1,0.6-2,1.5-2.5,2.6c-0.6,1.2-0.9,2.5-0.9,3.9
						c0,1.3,0.3,2.7,0.9,3.9c0.6,1.1,1.5,2,2.5,2.6c1.1,0.6,2.4,1,3.7,0.9c1.2,0,2.3-0.2,3.4-0.6c1-0.4,1.9-1.1,2.6-1.9l1.4,1.4
						c-0.9,1-1.9,1.8-3.2,2.4c-1.3,0.6-2.8,0.9-4.3,0.8c-1.7,0-3.4-0.4-4.8-1.2c-1.4-0.8-2.6-2-3.3-3.4c-1.6-3.1-1.6-6.8,0-9.9
						c0.8-1.4,1.9-2.6,3.3-3.4c1.5-0.8,3.2-1.2,4.8-1.2c1.4,0,2.7,0.2,4,0.7c1.2,0.5,2.2,1.1,3.1,2l-1.4,1.6
						C-151.7-385.9-153.8-386.7-155.9-386.7z"/>
					<path id="Caminho_120" class="st9" d="M-130.8-387.6c1.3-0.8,2.7-1.2,4.2-1.2v2.3c-1.8-0.1-3.5,0.5-4.8,1.8
						c-1.3,1.3-2,3-2.1,4.9v10.1h-2.4v-18.9h2.4v4.4C-132.9-385.7-132-386.8-130.8-387.6z"/>
					<path id="Caminho_121" class="st9" d="M-101.3-386c1.6,2.2,2.4,4.8,2.1,7.5H-115c0.1,1.9,0.9,3.6,2.2,4.9
						c1.3,1.2,3.1,1.9,4.9,1.9c1.2,0,2.3-0.2,3.4-0.6c1-0.4,1.9-1,2.7-1.8l1.4,1.4c-0.9,1-2.1,1.8-3.3,2.3c-1.3,0.6-2.8,0.8-4.2,0.8
						c-1.7,0-3.4-0.4-4.9-1.2c-1.4-0.8-2.6-2-3.3-3.4c-1.6-3.1-1.6-6.8,0-9.9c0.8-1.4,1.9-2.6,3.3-3.4c1.5-0.8,3.1-1.2,4.8-1.2
						C-105.5-389-103-388-101.3-386z M-101.4-380.4c0-1.8-0.7-3.5-2-4.7c-1.3-1.2-2.9-1.8-4.7-1.8c-1.8-0.1-3.5,0.6-4.8,1.8
						c-1.3,1.2-2.1,2.9-2.2,4.7L-101.4-380.4z M-105.5-396.8l2.5,1.1l-4.6,3.6l-2.2-0.3L-105.5-396.8z"/>
					<path id="Caminho_122" class="st9" d="M-69.7-396.6v26.8h-2.4v-4.3c-0.7,1.4-1.7,2.5-3,3.3c-1.4,0.8-3,1.2-4.6,1.2
						c-1.7,0-3.3-0.4-4.8-1.2c-1.4-0.8-2.5-2-3.3-3.4c-0.8-1.5-1.2-3.3-1.2-5c0-1.7,0.4-3.4,1.2-5c0.7-1.4,1.9-2.6,3.3-3.4
						c1.4-0.8,3.1-1.3,4.7-1.2c1.6,0,3.2,0.4,4.6,1.2c1.3,0.8,2.4,2,3.1,3.3v-12.3H-69.7z M-75.5-372.7c1.1-0.6,2-1.6,2.5-2.7
						c0.6-1.2,0.9-2.5,0.9-3.9c0-1.4-0.3-2.7-0.9-3.9c-0.6-1.1-1.5-2-2.5-2.7c-3.4-2-7.7-1-9.8,2.4c-0.1,0.1-0.1,0.2-0.2,0.3
						c-1.2,2.4-1.3,5.3,0,7.8c0.6,1.1,1.5,2,2.6,2.7c1.1,0.6,2.4,1,3.7,1C-77.9-371.7-76.7-372.1-75.5-372.7z"/>
					<path id="Caminho_123" class="st9" d="M-52.7-395.4c0.3,0.3,0.5,0.8,0.5,1.2c0,0.5-0.2,0.9-0.5,1.2c-0.3,0.3-0.7,0.5-1.2,0.5
						c-0.5,0-0.9-0.2-1.2-0.5c-0.3-0.3-0.5-0.8-0.5-1.2c0-0.9,0.7-1.7,1.6-1.7c0,0,0,0,0.1,0C-53.5-395.9-53-395.7-52.7-395.4z
						 M-55.2-388.7h2.4v18.9h-2.4V-388.7z"/>
					<path id="Caminho_124" class="st9" d="M-28.9-371.1c-1.2,0.9-2.7,1.4-4.2,1.4c-1.3,0.1-2.5-0.4-3.4-1.3c-0.9-1.1-1.4-2.6-1.3-4
						v-11.3h-2.7l0-1.9h2.7v-4.9h2.4v4.9l6.1,0v1.9h-6.1v10.9c0,2.3,0.9,3.5,2.6,3.5c1.1,0,2.2-0.4,3.1-1L-28.9-371.1z"/>
					<path id="Caminho_125" class="st9" d="M-5.1-387.6c1.4,0.8,2.6,2,3.4,3.4c0.8,1.5,1.3,3.2,1.2,4.9c0,1.7-0.4,3.4-1.2,5
						c-0.8,1.4-2,2.6-3.4,3.4c-3.1,1.6-6.8,1.6-9.8,0c-1.4-0.8-2.6-2-3.4-3.4c-0.8-1.5-1.3-3.2-1.2-5c0-1.7,0.4-3.4,1.2-4.9
						c0.8-1.4,2-2.6,3.4-3.4C-11.8-389.2-8.2-389.2-5.1-387.6z M-13.7-385.8c-1.1,0.6-2,1.5-2.5,2.6c-0.6,1.2-0.9,2.5-0.9,3.9
						c0,1.4,0.3,2.7,0.9,3.9c0.6,1.1,1.5,2,2.5,2.6c2.3,1.3,5.1,1.3,7.4,0c1.1-0.6,2-1.5,2.5-2.6c0.6-1.2,0.9-2.5,0.9-3.9
						c0-1.3-0.3-2.7-0.9-3.9c-0.6-1.1-1.5-2-2.5-2.6C-8.6-387-11.4-387-13.7-385.8z"/>
				</g>
			</g>
		</g>
	</g>
</g>
</svg>
